<?xml version="1.0" encoding="UTF-8" standalone="no"?>
<!DOCTYPE svg PUBLIC "-//W3C//DTD SVG 1.1//EN"
 "http://www.w3.org/Graphics/SVG/1.1/DTD/svg11.dtd">
<!-- Generated by graphviz version 5.0.0 (20220707.1540)
 -->
<!-- Title: dependencies Pages: 1 -->
<svg width="817pt" height="174pt"
 viewBox="0.00 0.00 817.00 173.80" xmlns="http://www.w3.org/2000/svg" xmlns:xlink="http://www.w3.org/1999/xlink">
<g id="graph0" class="graph" transform="scale(1 1) rotate(0) translate(4 169.8)">
<title>dependencies</title>
<polygon fill="white" stroke="transparent" points="-4,4 -4,-169.8 813,-169.8 813,4 -4,4"/>
<text text-anchor="middle" x="404.5" y="-8.2" font-family="sans-serif" font-size="14.00">dependencies</text>
<g id="clust1" class="cluster">
<title>cluster_ConsultaModule</title>
<polygon fill="none" stroke="black" stroke-dasharray="1,5" points="8,-32.8 8,-157.8 801,-157.8 801,-32.8 8,-32.8"/>
</g>
<g id="clust2" class="cluster">
<title>cluster_ConsultaModule_declarations</title>
<polygon fill="none" stroke="black" points="194,-40.8 194,-92.8 793,-92.8 793,-40.8 194,-40.8"/>
</g>
<g id="clust7" class="cluster">
<title>cluster_ConsultaModule_imports</title>
<polygon fill="none" stroke="black" points="16,-40.8 16,-92.8 186,-92.8 186,-40.8 16,-40.8"/>
</g>
<!-- AutomataComponent -->
<g id="node1" class="node">
<title>AutomataComponent</title>
<polygon fill="#ffffb3" stroke="black" points="785.04,-84.8 648.96,-84.8 648.96,-48.8 785.04,-48.8 785.04,-84.8"/>
<text text-anchor="middle" x="717" y="-62.6" font-family="Times,serif" font-size="14.00">AutomataComponent</text>
</g>
<!-- ConsultaModule -->
<g id="node5" class="node">
<title>ConsultaModule</title>
<polygon fill="#8dd3c7" stroke="black" points="472.83,-149.8 469.83,-153.8 448.83,-153.8 445.83,-149.8 363.17,-149.8 363.17,-113.8 472.83,-113.8 472.83,-149.8"/>
<text text-anchor="middle" x="418" y="-127.6" font-family="Times,serif" font-size="14.00">ConsultaModule</text>
</g>
<!-- AutomataComponent&#45;&gt;ConsultaModule -->
<g id="edge1" class="edge">
<title>AutomataComponent&#45;&gt;ConsultaModule</title>
<path fill="none" stroke="black" d="M717,-85.08C717,-106.12 717,-137.8 717,-137.8 717,-137.8 482.84,-137.8 482.84,-137.8"/>
<polygon fill="black" stroke="black" points="482.84,-134.3 472.84,-137.8 482.84,-141.3 482.84,-134.3"/>
</g>
<!-- ConsultaComponent -->
<g id="node2" class="node">
<title>ConsultaComponent</title>
<polygon fill="#ffffb3" stroke="black" points="630.61,-84.8 499.39,-84.8 499.39,-48.8 630.61,-48.8 630.61,-84.8"/>
<text text-anchor="middle" x="565" y="-62.6" font-family="Times,serif" font-size="14.00">ConsultaComponent</text>
</g>
<!-- ConsultaComponent&#45;&gt;ConsultaModule -->
<g id="edge2" class="edge">
<title>ConsultaComponent&#45;&gt;ConsultaModule</title>
<path fill="none" stroke="black" d="M565,-84.82C565,-102.17 565,-125.8 565,-125.8 565,-125.8 482.74,-125.8 482.74,-125.8"/>
<polygon fill="black" stroke="black" points="482.74,-122.3 472.74,-125.8 482.74,-129.3 482.74,-122.3"/>
</g>
<!-- EquiposComponent -->
<g id="node3" class="node">
<title>EquiposComponent</title>
<polygon fill="#ffffb3" stroke="black" points="481.72,-84.8 354.28,-84.8 354.28,-48.8 481.72,-48.8 481.72,-84.8"/>
<text text-anchor="middle" x="418" y="-62.6" font-family="Times,serif" font-size="14.00">EquiposComponent</text>
</g>
<!-- EquiposComponent&#45;&gt;ConsultaModule -->
<g id="edge3" class="edge">
<title>EquiposComponent&#45;&gt;ConsultaModule</title>
<path fill="none" stroke="black" d="M418,-84.91C418,-84.91 418,-103.79 418,-103.79"/>
<polygon fill="black" stroke="black" points="414.5,-103.79 418,-113.79 421.5,-103.79 414.5,-103.79"/>
</g>
<!-- UnidadesComponent -->
<g id="node4" class="node">
<title>UnidadesComponent</title>
<polygon fill="#ffffb3" stroke="black" points="336.21,-84.8 201.79,-84.8 201.79,-48.8 336.21,-48.8 336.21,-84.8"/>
<text text-anchor="middle" x="269" y="-62.6" font-family="Times,serif" font-size="14.00">UnidadesComponent</text>
</g>
<!-- UnidadesComponent&#45;&gt;ConsultaModule -->
<g id="edge4" class="edge">
<title>UnidadesComponent&#45;&gt;ConsultaModule</title>
<path fill="none" stroke="black" d="M269,-84.82C269,-102.17 269,-125.8 269,-125.8 269,-125.8 352.94,-125.8 352.94,-125.8"/>
<polygon fill="black" stroke="black" points="352.94,-129.3 362.94,-125.8 352.94,-122.3 352.94,-129.3"/>
</g>
<!-- ConsultaRoutingModule -->
<g id="node6" class="node">
<title>ConsultaRoutingModule</title>
<polygon fill="#8dd3c7" stroke="black" points="178.45,-84.8 175.45,-88.8 154.45,-88.8 151.45,-84.8 23.55,-84.8 23.55,-48.8 178.45,-48.8 178.45,-84.8"/>
<text text-anchor="middle" x="101" y="-62.6" font-family="Times,serif" font-size="14.00">ConsultaRoutingModule</text>
</g>
<!-- ConsultaRoutingModule&#45;&gt;ConsultaModule -->
<g id="edge5" class="edge">
<title>ConsultaRoutingModule&#45;&gt;ConsultaModule</title>
<path fill="none" stroke="black" d="M101,-85.08C101,-106.12 101,-137.8 101,-137.8 101,-137.8 353.14,-137.8 353.14,-137.8"/>
<polygon fill="black" stroke="black" points="353.14,-141.3 363.14,-137.8 353.14,-134.3 353.14,-141.3"/>
</g>
</g>
</svg>
