<?xml version="1.0" encoding="UTF-8" standalone="no"?>
<!DOCTYPE svg PUBLIC "-//W3C//DTD SVG 1.1//EN"
 "http://www.w3.org/Graphics/SVG/1.1/DTD/svg11.dtd">
<!-- Generated by graphviz version 5.0.0 (20220707.1540)
 -->
<!-- Title: dependencies Pages: 1 -->
<svg width="591pt" height="247pt"
 viewBox="0.00 0.00 591.00 246.80" xmlns="http://www.w3.org/2000/svg" xmlns:xlink="http://www.w3.org/1999/xlink">
<g id="graph0" class="graph" transform="scale(1 1) rotate(0) translate(4 242.8)">
<title>dependencies</title>
<polygon fill="white" stroke="transparent" points="-4,4 -4,-242.8 587,-242.8 587,4 -4,4"/>
<text text-anchor="middle" x="291.5" y="-8.2" font-family="sans-serif" font-size="14.00">dependencies</text>
<g id="clust1" class="cluster">
<title>cluster_CoreModule</title>
<polygon fill="none" stroke="black" stroke-dasharray="1,5" points="8,-32.8 8,-230.8 575,-230.8 575,-32.8 8,-32.8"/>
</g>
<g id="clust8" class="cluster">
<title>cluster_CoreModule_exports</title>
<polygon fill="none" stroke="black" points="227,-170.8 227,-222.8 357,-222.8 357,-170.8 227,-170.8"/>
</g>
<g id="clust2" class="cluster">
<title>cluster_CoreModule_declarations</title>
<polygon fill="none" stroke="black" points="16,-40.8 16,-92.8 567,-92.8 567,-40.8 16,-40.8"/>
</g>
<!-- HeaderComponent -->
<g id="node1" class="node">
<title>HeaderComponent</title>
<polygon fill="#ffffb3" stroke="black" points="558.75,-84.8 437.25,-84.8 437.25,-48.8 558.75,-48.8 558.75,-84.8"/>
<text text-anchor="middle" x="498" y="-62.6" font-family="Times,serif" font-size="14.00">HeaderComponent</text>
</g>
<!-- CoreModule -->
<g id="node5" class="node">
<title>CoreModule</title>
<polygon fill="#8dd3c7" stroke="black" points="335.27,-149.8 332.27,-153.8 311.27,-153.8 308.27,-149.8 248.73,-149.8 248.73,-113.8 335.27,-113.8 335.27,-149.8"/>
<text text-anchor="middle" x="292" y="-127.6" font-family="Times,serif" font-size="14.00">CoreModule</text>
</g>
<!-- HeaderComponent&#45;&gt;CoreModule -->
<g id="edge1" class="edge">
<title>HeaderComponent&#45;&gt;CoreModule</title>
<path fill="none" stroke="black" d="M498,-84.91C498,-104.14 498,-131.8 498,-131.8 498,-131.8 345.44,-131.8 345.44,-131.8"/>
<polygon fill="black" stroke="black" points="345.44,-128.3 335.44,-131.8 345.44,-135.3 345.44,-128.3"/>
</g>
<!-- MainComponent -->
<g id="node2" class="node">
<title>MainComponent</title>
<polygon fill="#ffffb3" stroke="black" points="419.38,-84.8 308.62,-84.8 308.62,-48.8 419.38,-48.8 419.38,-84.8"/>
<text text-anchor="middle" x="364" y="-62.6" font-family="Times,serif" font-size="14.00">MainComponent</text>
</g>
<!-- MainComponent&#45;&gt;CoreModule -->
<g id="edge2" class="edge">
<title>MainComponent&#45;&gt;CoreModule</title>
<path fill="none" stroke="black" d="M321.97,-84.91C321.97,-84.91 321.97,-103.79 321.97,-103.79"/>
<polygon fill="black" stroke="black" points="318.47,-103.79 321.97,-113.79 325.47,-103.79 318.47,-103.79"/>
</g>
<!-- NotFoundComponent -->
<g id="node3" class="node">
<title>NotFoundComponent</title>
<polygon fill="#ffffb3" stroke="black" points="290.12,-84.8 151.88,-84.8 151.88,-48.8 290.12,-48.8 290.12,-84.8"/>
<text text-anchor="middle" x="221" y="-62.6" font-family="Times,serif" font-size="14.00">NotFoundComponent</text>
</g>
<!-- NotFoundComponent&#45;&gt;CoreModule -->
<g id="edge3" class="edge">
<title>NotFoundComponent&#45;&gt;CoreModule</title>
<path fill="none" stroke="black" d="M269.34,-84.91C269.34,-84.91 269.34,-103.79 269.34,-103.79"/>
<polygon fill="black" stroke="black" points="265.84,-103.79 269.34,-113.79 272.84,-103.79 265.84,-103.79"/>
</g>
<!-- ShellComponent -->
<g id="node4" class="node">
<title>ShellComponent</title>
<polygon fill="#ffffb3" stroke="black" points="134.11,-84.8 23.89,-84.8 23.89,-48.8 134.11,-48.8 134.11,-84.8"/>
<text text-anchor="middle" x="79" y="-62.6" font-family="Times,serif" font-size="14.00">ShellComponent</text>
</g>
<!-- ShellComponent&#45;&gt;CoreModule -->
<g id="edge4" class="edge">
<title>ShellComponent&#45;&gt;CoreModule</title>
<path fill="none" stroke="black" d="M79,-84.91C79,-104.14 79,-131.8 79,-131.8 79,-131.8 238.64,-131.8 238.64,-131.8"/>
<polygon fill="black" stroke="black" points="238.64,-135.3 248.64,-131.8 238.64,-128.3 238.64,-135.3"/>
</g>
<!-- ShellComponent  -->
<g id="node6" class="node">
<title>ShellComponent </title>
<polygon fill="#fb8072" stroke="black" points="348.61,-214.8 235.39,-214.8 235.39,-178.8 348.61,-178.8 348.61,-214.8"/>
<text text-anchor="middle" x="292" y="-192.6" font-family="Times,serif" font-size="14.00">ShellComponent </text>
</g>
<!-- CoreModule&#45;&gt;ShellComponent  -->
<g id="edge5" class="edge">
<title>CoreModule&#45;&gt;ShellComponent </title>
<path fill="none" stroke="black" stroke-dasharray="5,2" d="M292,-149.91C292,-149.91 292,-168.79 292,-168.79"/>
<polygon fill="black" stroke="black" points="288.5,-168.79 292,-178.79 295.5,-168.79 288.5,-168.79"/>
</g>
</g>
</svg>
